<svg width="308" height="308" viewBox="0 0 308 308" fill="none" xmlns="http://www.w3.org/2000/svg">
<path d="M153.911 307.822C238.913 307.822 307.822 238.913 307.822 153.911C307.822 68.9082 238.913 0 153.911 0C68.9082 0 0 68.9082 0 153.911C0 238.913 68.9082 307.822 153.911 307.822Z" fill="#FFE8A6"/>
<path d="M246.257 206.24C266.091 206.24 282.17 190.162 282.17 170.328C282.17 150.494 266.091 134.415 246.257 134.415C226.423 134.415 210.345 150.494 210.345 170.328C210.345 190.162 226.423 206.24 246.257 206.24Z" fill="#F4DC9F"/>
<path d="M82.5994 220.605C99.5999 220.605 113.382 206.823 113.382 189.823C113.382 172.822 99.5999 159.041 82.5994 159.041C65.5989 159.041 51.8173 172.822 51.8173 189.823C51.8173 206.823 65.5989 220.605 82.5994 220.605Z" fill="#F4DC9F"/>
<path d="M113.895 292.43C139.396 292.43 160.068 271.758 160.068 246.257C160.068 220.756 139.396 200.084 113.895 200.084C88.3944 200.084 67.7219 220.756 67.7219 246.257C67.7219 271.758 88.3944 292.43 113.895 292.43Z" fill="#F4DC9F"/>
<path d="M112.868 98.5029C124.202 98.5029 133.389 89.3151 133.389 77.9815C133.389 66.6478 124.202 57.46 112.868 57.46C101.534 57.46 92.3466 66.6478 92.3466 77.9815C92.3466 89.3151 101.534 98.5029 112.868 98.5029Z" fill="#F4DC9F"/>
<path d="M179.563 103.633C190.896 103.633 200.084 94.4455 200.084 83.1118C200.084 71.7782 190.896 62.5904 179.563 62.5904C168.229 62.5904 159.041 71.7782 159.041 83.1118C159.041 94.4455 168.229 103.633 179.563 103.633Z" fill="#F4DC9F"/>
<path d="M51.8172 143.137C63.1509 143.137 72.3387 133.949 72.3387 122.615C72.3387 111.282 63.1509 102.094 51.8172 102.094C40.4835 102.094 31.2958 111.282 31.2958 122.615C31.2958 133.949 40.4835 143.137 51.8172 143.137Z" fill="#F4DC9F"/>
<path d="M189.823 47.1993C195.49 47.1993 200.084 42.6054 200.084 36.9386C200.084 31.2717 195.49 26.6779 189.823 26.6779C184.157 26.6779 179.563 31.2717 179.563 36.9386C179.563 42.6054 184.157 47.1993 189.823 47.1993Z" fill="#F4DC9F"/>
<path d="M31.2959 200.084C36.9627 200.084 41.5566 195.49 41.5566 189.823C41.5566 184.156 36.9627 179.562 31.2959 179.562C25.629 179.562 21.0352 184.156 21.0352 189.823C21.0352 195.49 25.629 200.084 31.2959 200.084Z" fill="#F4DC9F"/>
<path d="M256.518 256.518C262.185 256.518 266.779 251.924 266.779 246.257C266.779 240.59 262.185 235.996 256.518 235.996C250.851 235.996 246.257 240.59 246.257 246.257C246.257 251.924 250.851 256.518 256.518 256.518Z" fill="#F4DC9F"/>
<path d="M117.998 158.528C126.499 158.528 133.389 151.637 133.389 143.137C133.389 134.637 126.499 127.746 117.998 127.746C109.498 127.746 102.607 134.637 102.607 143.137C102.607 151.637 109.498 158.528 117.998 158.528Z" fill="#F4DC9F"/>
<path d="M66.6948 80.5467C72.3616 80.5467 76.9555 75.9528 76.9555 70.2859C76.9555 64.6191 72.3616 60.0252 66.6948 60.0252C61.028 60.0252 56.4341 64.6191 56.4341 70.2859C56.4341 75.9528 61.028 80.5467 66.6948 80.5467Z" fill="#F4DC9F"/>
<path d="M225.736 280.117C237.07 280.117 246.257 270.929 246.257 259.596C246.257 248.262 237.07 239.074 225.736 239.074C214.402 239.074 205.214 248.262 205.214 259.596C205.214 270.929 214.402 280.117 225.736 280.117Z" fill="#F4DC9F"/>
<path d="M113.895 45.1469C113.895 59.5119 125.182 70.7987 139.547 70.7987C153.912 70.7987 165.199 59.5119 165.199 45.1469C165.199 30.7819 153.912 19.4951 139.547 19.4951C125.182 18.982 113.895 30.7819 113.895 45.1469" fill="#F4DC9F"/>
</svg>
