<svg width="120" height="120" viewBox="0 0 120 120" fill="none" xmlns="http://www.w3.org/2000/svg">
<path d="M94.5455 70C94.5455 77.3633 83.6364 120 61.8182 120H32.7273C10.9091 120 0 77.3633 0 70V13.3333C0 5.97 6.51273 0 14.5455 0H80C88.0327 0 94.5455 5.97 94.5455 13.3333V70Z" fill="#DA2F47"/>
<path d="M45.2399 30.5701C53.0145 38.3801 55.1127 48.9335 49.9309 54.1401C44.7599 59.3435 34.2509 57.2335 26.4836 49.4235C18.7127 41.6135 16.6109 31.0601 21.7927 25.8535C26.9709 20.6501 37.4763 22.7635 45.2399 30.5701Z" fill="#F5F8FA"/>
<path d="M50.669 42.3566C52.8836 44.96 52.8836 49.1833 50.669 51.7866C48.4617 54.39 44.8763 54.39 42.6654 51.7866C40.4545 49.1833 40.4545 44.9633 42.6654 42.36C44.8763 39.7533 48.4617 39.7533 50.669 42.3566Z" fill="#292F33"/>
<path d="M71.7345 30.9034C65.0945 38.7101 63.3054 49.2668 67.7345 54.4734C72.1527 59.6801 81.1163 57.5701 87.7491 49.7601C94.3818 41.9501 96.1709 31.3968 91.7491 26.1901C87.3309 20.9834 78.3672 23.0934 71.7345 30.9034Z" fill="#F5F8FA"/>
<path d="M73.7309 54.0699C76.8578 54.0699 79.3927 51.0851 79.3927 47.4032C79.3927 43.7213 76.8578 40.7366 73.7309 40.7366C70.604 40.7366 68.0691 43.7213 68.0691 47.4032C68.0691 51.0851 70.604 54.0699 73.7309 54.0699Z" fill="#292F33"/>
<path d="M68.6981 36.6667C67.1345 36.6667 65.5636 36.2067 64.2363 35.26C61.069 33 60.4981 28.81 62.9636 25.9034L79.9454 5.90337C82.4145 2.9967 86.9781 2.47337 90.1526 4.7367C93.3199 6.9967 93.8908 11.1867 91.4254 14.0934L74.4436 34.0934C73.0036 35.7834 70.8617 36.6667 68.6981 36.6667ZM51.7126 36.6667C49.5454 36.6667 47.4036 35.7834 45.9672 34.0967L28.9781 14.0967C26.509 11.19 27.0799 7.00337 30.2472 4.74004C33.4181 2.4767 37.989 2.9967 40.4545 5.90337L57.4436 25.9034C59.9126 28.81 59.3417 32.9967 56.1745 35.26C54.8472 36.2067 53.2726 36.6667 51.7126 36.6667Z" fill="#292F33"/>
<path d="M80.0001 103.337C77.0546 103.337 74.2873 101.683 73.1892 99.0067C72.811 98.1434 68.9455 90.0001 58.1819 90.0001C47.4183 90.0001 43.5528 98.1434 43.1455 99.0734C41.6655 102.467 37.4619 104.163 33.7528 102.85C30.0364 101.53 28.1564 97.7501 29.5564 94.3267C29.8473 93.6034 37.0219 76.6667 58.1819 76.6667C79.3419 76.6667 86.5164 93.6034 86.811 94.3267C88.2219 97.7734 86.3128 101.617 82.5528 102.91C81.7128 103.197 80.8473 103.337 80.0001 103.337Z" fill="#FDD888"/>
<path d="M60.2001 73.3331C60.2001 73.3331 76.4982 71.4898 85.8364 86.6664C96.0873 103.333 96.0873 69.9998 93.5237 66.6664C90.9637 63.3331 88.2473 71.2864 83.2692 69.6664C73.011 66.3331 60.2001 73.3331 60.2001 73.3331ZM60.2001 73.3331C60.2001 73.3331 38.7892 71.4898 26.5164 86.6664C13.051 103.333 13.051 69.9998 16.4146 66.6664C19.7819 63.3331 23.3492 72.4164 29.891 70.7964C43.3601 67.4631 60.2001 73.3331 60.2001 73.3331Z" fill="#292F33"/>
<path d="M110.044 50C109.716 50 109.411 50.0633 109.091 50.0967V50H58.7417C53.2472 50 48.7999 54.4767 48.7999 60C48.7999 65.5233 53.2508 70 58.7417 70H109.091V69.9033C109.411 69.9333 109.716 70 110.044 70C115.542 70 120 65.5233 120 60C120 54.48 115.542 50 110.044 50Z" fill="#E75A70"/>
</svg>
