<svg width="280" height="62" viewBox="0 0 280 62" fill="none" xmlns="http://www.w3.org/2000/svg">
<path d="M59.0715 39.5394L50.7521 20.0418H40.8909V45H46.6085V23.543L56.277 45H61.8661L71.5345 23.543V45H77.2521V20.0418H67.3909L59.0715 39.5394ZM82.055 36.0703C82.055 41.3061 86.1665 45.4176 93.0726 45.4176C100.043 45.4176 104.154 41.3061 104.154 36.0703C104.154 30.8667 100.043 26.7552 93.0726 26.7552C86.1665 26.7552 82.055 30.8667 82.055 36.0703ZM87.612 36.0703C87.612 33.1473 88.9289 30.2885 93.0726 30.2885C97.1841 30.2885 98.5974 33.1473 98.5974 36.0703C98.5974 38.9933 97.1841 41.8842 93.0726 41.8842C88.9289 41.8842 87.612 38.9933 87.612 36.0703ZM107.997 36.0703C107.997 41.3061 112.108 45.4176 119.014 45.4176C125.985 45.4176 130.096 41.3061 130.096 36.0703C130.096 30.8667 125.985 26.7552 119.014 26.7552C112.108 26.7552 107.997 30.8667 107.997 36.0703ZM113.554 36.0703C113.554 33.1473 114.871 30.2885 119.014 30.2885C123.126 30.2885 124.539 33.1473 124.539 36.0703C124.539 38.9933 123.126 41.8842 119.014 41.8842C114.871 41.8842 113.554 38.9933 113.554 36.0703ZM149.999 45H155.299V34.0788C155.299 29.5497 152.858 26.7552 146.947 26.7552C139.881 26.7552 139.495 32.2158 139.495 32.2158L137.986 27.1727H134.902V45H140.202V34.2073C140.202 34.2073 141.294 30.2885 145.502 30.2885C148.361 30.2885 149.999 31.4448 149.999 33.8218V45ZM158.204 27.1727V30.2885H162.315V45H167.615V30.2885H174.104V27.1727H167.294C167.294 27.1727 166.78 26.723 166.78 25.92C166.78 24.7958 167.422 22.9648 170.699 22.9648C175.581 22.9648 175.613 27.0764 175.613 27.0764L181.138 25.663C181.138 25.663 179.436 19.5921 170.442 19.5921C164.66 19.5921 161.737 22.3545 161.737 24.8279C161.737 26.4982 162.925 27.1406 162.99 27.1727H158.204ZM176.003 36.0703C176.003 41.3061 180.115 45.4176 187.021 45.4176C193.991 45.4176 198.103 41.3061 198.103 36.0703C198.103 30.8667 193.991 26.7552 187.021 26.7552C180.115 26.7552 176.003 30.8667 176.003 36.0703ZM181.56 36.0703C181.56 33.1473 182.877 30.2885 187.021 30.2885C191.132 30.2885 192.546 33.1473 192.546 36.0703C192.546 38.9933 191.132 41.8842 187.021 41.8842C182.877 41.8842 181.56 38.9933 181.56 36.0703ZM208.209 34.1752C208.209 34.1752 208.722 30.2885 210.971 30.2885C211.581 30.2885 212.384 30.5776 212.384 31.8945C212.384 34.3358 211.838 36.1345 211.838 36.1345L216.978 34.8176C216.978 34.8176 217.395 33.6291 217.395 31.4127C217.395 28.9073 216.303 26.7552 212.609 26.7552C207.438 26.7552 207.502 32.2158 207.502 32.2158L205.992 27.1727H202.909V45H208.209V34.1752ZM254.119 34.0788C254.119 29.1642 251.517 26.7552 247.02 26.7552C240.435 26.7552 239.697 31.7018 239.632 32.1836C239.632 31.9909 239.504 26.7552 233.24 26.7552C226.302 26.7552 225.852 32.2158 225.852 32.2158L224.343 27.1727H221.259V45H226.559V34.2073C226.559 34.2073 227.651 30.2885 231.506 30.2885C234.686 30.2885 235.039 32.28 235.039 33.9824V45H240.339V34.2073C240.339 34.2073 241.431 30.2885 245.286 30.2885C248.466 30.2885 248.819 32.28 248.819 33.9824V45H254.119V34.0788ZM263.438 37.8691L258.299 39.1861C258.299 39.1861 258.716 45.4176 268.963 45.4176C274.102 45.4176 278.214 43.4903 278.214 39.8606C278.214 37.2267 276.512 35.1709 272.015 34.4321L267.518 33.6933C265.43 33.34 264.113 33.0509 264.113 31.9909C264.113 31.0915 265.141 30.1279 267.389 30.1279C271.95 30.1279 272.111 33.2758 272.111 33.2758L277.25 31.9588C277.25 31.9588 276.512 26.7552 267.614 26.7552C262.924 26.7552 259.198 28.7788 259.198 32.3121C259.198 35.5564 262.378 36.6485 265.205 37.1624L269.381 37.9333C271.886 38.383 272.978 38.9291 272.978 40.0212C272.978 41.2739 271.147 41.8842 269.027 41.8842C263.406 41.8842 263.438 37.8691 263.438 37.8691Z" fill="#FDFFAF"/>
<path fill-rule="evenodd" clip-rule="evenodd" d="M14.6364 0C23.1234 4.11922 29.2727 16.2582 29.2727 30.5919C29.2727 44.9256 23.1234 57.0645 14.6364 61.1837C6.14931 57.0645 0 44.9256 0 30.5919C0 16.2582 6.14931 4.11922 14.6364 0Z" fill="#FDFFAF"/>
</svg>
