<svg width="583" height="109" viewBox="0 0 583 109" fill="none" xmlns="http://www.w3.org/2000/svg">
<g clip-path="url(#clip0_4_38)">
<path d="M135.672 69.46L119.614 31.826H100.58V80H111.616V38.584L130.278 80H141.066L159.728 38.584V80H170.764V31.826H151.73L135.672 69.46ZM180.034 62.764C180.034 72.87 187.97 80.806 201.3 80.806C214.754 80.806 222.69 72.87 222.69 62.764C222.69 52.72 214.754 44.784 201.3 44.784C187.97 44.784 180.034 52.72 180.034 62.764ZM190.76 62.764C190.76 57.122 193.302 51.604 201.3 51.604C209.236 51.604 211.964 57.122 211.964 62.764C211.964 68.406 209.236 73.986 201.3 73.986C193.302 73.986 190.76 68.406 190.76 62.764ZM230.107 62.764C230.107 72.87 238.043 80.806 251.373 80.806C264.827 80.806 272.763 72.87 272.763 62.764C272.763 52.72 264.827 44.784 251.373 44.784C238.043 44.784 230.107 52.72 230.107 62.764ZM240.833 62.764C240.833 57.122 243.375 51.604 251.373 51.604C259.309 51.604 262.037 57.122 262.037 62.764C262.037 68.406 259.309 73.986 251.373 73.986C243.375 73.986 240.833 68.406 240.833 62.764ZM311.179 80H321.409V58.92C321.409 50.178 316.697 44.784 305.289 44.784C291.649 44.784 290.905 55.324 290.905 55.324L287.991 45.59H282.039V80H292.269V59.168C292.269 59.168 294.377 51.604 302.499 51.604C308.017 51.604 311.179 53.836 311.179 58.424V80ZM327.016 45.59V51.604H334.952V80H345.182V51.604H357.706V45.59H344.562C344.562 45.59 343.57 44.722 343.57 43.172C343.57 41.002 344.81 37.468 351.134 37.468C360.558 37.468 360.62 45.404 360.62 45.404L371.284 42.676C371.284 42.676 367.998 30.958 350.638 30.958C339.478 30.958 333.836 36.29 333.836 41.064C333.836 44.288 336.13 45.528 336.254 45.59H327.016ZM361.372 62.764C361.372 72.87 369.308 80.806 382.638 80.806C396.092 80.806 404.028 72.87 404.028 62.764C404.028 52.72 396.092 44.784 382.638 44.784C369.308 44.784 361.372 52.72 361.372 62.764ZM372.098 62.764C372.098 57.122 374.64 51.604 382.638 51.604C390.574 51.604 393.302 57.122 393.302 62.764C393.302 68.406 390.574 73.986 382.638 73.986C374.64 73.986 372.098 68.406 372.098 62.764ZM423.535 59.106C423.535 59.106 424.527 51.604 428.867 51.604C430.045 51.604 431.595 52.162 431.595 54.704C431.595 59.416 430.541 62.888 430.541 62.888L440.461 60.346C440.461 60.346 441.267 58.052 441.267 53.774C441.267 48.938 439.159 44.784 432.029 44.784C422.047 44.784 422.171 55.324 422.171 55.324L419.257 45.59H413.305V80H423.535V59.106ZM512.151 58.92C512.151 49.434 507.129 44.784 498.449 44.784C485.739 44.784 484.313 54.332 484.189 55.262C484.189 54.89 483.941 44.784 471.851 44.784C458.459 44.784 457.591 55.324 457.591 55.324L454.677 45.59H448.725V80H458.955V59.168C458.955 59.168 461.063 51.604 468.503 51.604C474.641 51.604 475.323 55.448 475.323 58.734V80H485.553V59.168C485.553 59.168 487.661 51.604 495.101 51.604C501.239 51.604 501.921 55.448 501.921 58.734V80H512.151V58.92ZM530.138 66.236L520.218 68.778C520.218 68.778 521.024 80.806 540.802 80.806C550.722 80.806 558.658 77.086 558.658 70.08C558.658 64.996 555.372 61.028 546.692 59.602L538.012 58.176C533.982 57.494 531.44 56.936 531.44 54.89C531.44 53.154 533.424 51.294 537.764 51.294C546.568 51.294 546.878 57.37 546.878 57.37L556.798 54.828C556.798 54.828 555.372 44.784 538.198 44.784C529.146 44.784 521.954 48.69 521.954 55.51C521.954 61.772 528.092 63.88 533.548 64.872L541.608 66.36C546.444 67.228 548.552 68.282 548.552 70.39C548.552 72.808 545.018 73.986 540.926 73.986C530.076 73.986 530.138 66.236 530.138 66.236Z" fill="#FDFFAF"/>
<path fill-rule="evenodd" clip-rule="evenodd" d="M47 24C60.3368 28.2358 70 40.7183 70 55.4577C70 70.1971 60.3368 82.6795 47 86.9153C33.6632 82.6795 24 70.1971 24 55.4577C24 40.7183 33.6632 28.2358 47 24Z" fill="#FDFFAF"/>
</g>
<defs>
<clipPath id="clip0_4_38">
<rect width="583" height="109" fill="white"/>
</clipPath>
</defs>
</svg>
