<svg width="120" height="120" viewBox="0 0 120 120" fill="none" xmlns="http://www.w3.org/2000/svg">
<path d="M100.622 0C106.373 62.0856 65.4917 106.374 0 100.623C27.9321 126.914 71.8522 126.474 99.1608 99.1619C126.473 71.8529 126.916 27.9324 100.622 0Z" fill="#FFD983"/>
<path d="M101.961 51.5755C100.418 53.1222 100.418 55.6262 101.961 57.1763C103.508 58.7196 106.012 58.7196 107.559 57.1763C109.105 55.6262 109.109 53.1222 107.559 51.5755C106.015 50.0289 103.508 50.0289 101.961 51.5755ZM47.3779 100.565C45.0545 102.885 45.0545 106.64 47.3779 108.963C49.6945 111.287 53.4556 111.287 55.7722 108.963C58.0922 106.64 58.0922 102.885 55.7722 100.565C53.4556 98.242 49.6945 98.242 47.3779 100.565ZM94.9637 93.251C91.097 97.1177 84.832 97.1177 80.9687 93.251C77.102 89.3843 77.102 83.1158 80.9687 79.2593C84.8354 75.3891 91.1004 75.3891 94.9637 79.2593C98.8304 83.1192 98.8304 89.3877 94.9637 93.251Z" fill="#FFCC4D"/>
</svg>
