<svg width="194" height="194" viewBox="0 0 194 194" fill="none" xmlns="http://www.w3.org/2000/svg">
<path d="M28.6474 150.318C41.5226 137.443 42.8102 134.224 50.8572 142.271C58.9042 150.318 55.6854 151.284 42.8102 164.481C33.1538 174.137 20.9223 172.206 20.9223 172.206C20.9223 172.206 18.991 159.975 28.6474 150.318Z" fill="#FF9D27"/>
<path d="M53.1104 163.515C58.2605 149.996 59.8699 148.387 52.4666 144.202C45.0634 140.018 45.0634 142.915 40.2352 156.434C36.3726 166.412 40.8789 175.425 40.8789 175.425C40.8789 175.425 49.5697 173.815 53.1104 163.515" fill="#FF9D27"/>
<path d="M45.7071 150.962C48.604 143.559 48.604 141.949 52.4666 144.202C56.651 146.455 55.6854 147.421 52.7885 154.824C50.8572 160.296 46.029 161.584 46.029 161.584C46.029 161.584 43.7758 156.756 45.7071 150.962Z" fill="#FDF516"/>
<path d="M48.604 140.662C44.4195 133.259 42.8101 134.868 29.2912 140.018C19.3129 143.881 17.3816 152.249 17.3816 152.249C17.3816 152.249 26.3942 156.756 36.3725 152.893C49.8915 147.743 52.7884 147.743 48.604 140.662Z" fill="#FF9D27"/>
<path d="M41.8443 147.421C49.2475 144.524 50.8569 144.524 48.6038 140.662C46.3506 136.477 45.385 137.443 37.9817 140.34C32.5098 142.271 31.2222 147.099 31.2222 147.099C31.2222 147.099 36.3723 149.353 41.8443 147.421Z" fill="#FDF516"/>
<path d="M38.3035 146.778C45.3849 139.696 46.0286 137.765 50.535 142.271C55.0413 146.778 53.11 147.421 46.0286 154.503C40.5567 159.975 33.7972 158.687 33.7972 158.687C33.7972 158.687 33.1534 152.249 38.3035 146.778" fill="#FDF516"/>
<path d="M53.1102 115.877C33.1537 82.4012 0 96.242 0 96.242C0 96.242 47.3164 48.9256 79.1825 80.7918L53.1102 115.877Z" fill="#3BAACF"/>
<path d="M68.5605 91.092L78.8607 80.7918C47.3164 48.9256 0 96.242 0 96.242C0 96.242 41.5226 66.6291 68.5605 91.092Z" fill="#428BC1"/>
<path d="M77.2513 140.018C110.727 159.975 96.886 193.128 96.886 193.128C96.886 193.128 144.202 145.812 112.336 113.946L77.2513 140.018Z" fill="#3BAACF"/>
<path d="M102.036 124.568L112.336 114.267C144.202 146.134 96.8859 193.45 96.8859 193.45C96.8859 193.45 126.499 151.606 102.036 124.568" fill="#428BC1"/>
<path d="M150.64 93.0233C112.98 130.361 71.4576 150.64 56.973 136.155C42.4883 121.671 62.7668 80.1481 100.105 42.4881C143.881 -1.28761 192.485 0.643678 192.485 0.643678C192.485 0.643678 194.094 49.2476 150.64 93.0233" fill="#C5D0D8"/>
<path d="M140.983 82.4014C103.645 119.739 66.3072 144.202 57.6164 135.512C48.9256 126.821 73.3885 89.4827 110.727 52.1446C154.502 8.36889 193.128 0 193.128 0C193.128 0 184.759 38.6256 140.983 82.4014V82.4014Z" fill="#DAE3EA"/>
<path d="M71.7793 146.456C70.1699 148.065 67.5948 148.065 65.9854 146.456L46.6726 127.143C45.0632 125.533 45.0632 122.637 46.6726 121.027L52.4665 115.233L77.5731 140.34L71.7793 146.456Z" fill="#C94747"/>
<path d="M66.3074 140.662C64.698 142.271 62.7667 142.915 61.8011 141.949L50.8571 131.005C49.8915 130.04 50.5353 128.108 52.1447 126.499L57.9385 120.705L72.1012 134.868L66.3074 140.662Z" fill="#F15744"/>
<path d="M60.8356 148.709C59.87 149.674 57.6168 149.674 56.6512 148.709L44.0978 136.155C43.1322 135.19 43.4541 133.258 44.4197 132.293L48.2823 128.43L64.6982 144.846L60.8356 148.709Z" fill="#3E4347"/>
<path d="M58.2602 146.134C57.2945 147.099 55.3633 147.421 54.7195 146.777L46.0287 138.086C45.385 137.443 45.7069 135.833 46.9944 134.868L50.8569 131.005L62.1227 142.271L58.2602 146.134Z" fill="#62727A"/>
<path d="M192.484 0.643848C192.484 0.643848 175.103 8.76963e-05 151.606 9.01274L184.115 41.5226C193.128 18.0254 192.484 0.643848 192.484 0.643848" fill="#C94747"/>
<path d="M192.484 0.643555C192.484 0.643555 178.643 3.54048 157.721 15.45L177.678 35.4066C189.587 14.4844 192.484 0.643555 192.484 0.643555" fill="#F15744"/>
<path d="M133.58 75.6419C142.469 75.6419 149.674 68.4363 149.674 59.5479C149.674 50.6594 142.469 43.4539 133.58 43.4539C124.692 43.4539 117.486 50.6594 117.486 59.5479C117.486 68.4363 124.692 75.6419 133.58 75.6419Z" fill="#EDF4F9"/>
<path d="M133.58 70.1698C139.447 70.1698 144.202 65.4141 144.202 59.5477C144.202 53.6813 139.447 48.9257 133.58 48.9257C127.714 48.9257 122.958 53.6813 122.958 59.5477C122.958 65.4141 127.714 70.1698 133.58 70.1698Z" fill="#3BAACF"/>
<path d="M101.392 107.83C110.281 107.83 117.486 100.624 117.486 91.7359C117.486 82.8474 110.281 75.6418 101.392 75.6418C92.5038 75.6418 85.2983 82.8474 85.2983 91.7359C85.2983 100.624 92.5038 107.83 101.392 107.83Z" fill="#EDF4F9"/>
<path d="M101.392 102.358C107.259 102.358 112.014 97.6021 112.014 91.7357C112.014 85.8693 107.259 81.1136 101.392 81.1136C95.5257 81.1136 90.7701 85.8693 90.7701 91.7357C90.7701 97.6021 95.5257 102.358 101.392 102.358Z" fill="#3BAACF"/>
<path d="M150.962 15.7721C149.996 16.7377 148.065 16.7377 147.099 15.7721C146.134 14.8065 146.134 12.8752 147.099 11.9095C148.065 10.9439 149.996 10.9439 150.962 11.9095C151.927 12.8752 151.927 14.8065 150.962 15.7721Z" fill="white"/>
<path d="M156.434 23.8189C157.856 23.8189 159.009 22.666 159.009 21.2439C159.009 19.8217 157.856 18.6688 156.434 18.6688C155.012 18.6688 153.859 19.8217 153.859 21.2439C153.859 22.666 155.012 23.8189 156.434 23.8189Z" fill="white"/>
<path d="M164.159 31.5441C165.581 31.5441 166.734 30.3912 166.734 28.9691C166.734 27.5469 165.581 26.394 164.159 26.394C162.737 26.394 161.584 27.5469 161.584 28.9691C161.584 30.3912 162.737 31.5441 164.159 31.5441Z" fill="white"/>
<path d="M171.562 39.2693C172.984 39.2693 174.137 38.1165 174.137 36.6943C174.137 35.2721 172.984 34.1193 171.562 34.1193C170.14 34.1193 168.987 35.2721 168.987 36.6943C168.987 38.1165 170.14 39.2693 171.562 39.2693Z" fill="white"/>
<path d="M179.288 46.6727C180.71 46.6727 181.863 45.5198 181.863 44.0976C181.863 42.6755 180.71 41.5226 179.288 41.5226C177.865 41.5226 176.712 42.6755 176.712 44.0976C176.712 45.5198 177.865 46.6727 179.288 46.6727Z" fill="white"/>
</svg>
